#!OML:ASF F:\VICON\USERDATA\INSTALL\rory3\rory3.ASF
:FULLY-SPECIFIED
:DEGREES
17
root 0.0941895 17.6124 -20.687 5.07423 -6.26985 -5.25211
lowerback 17.8142 0.92025 4.51906
upperback 0.78771 2.30835 1.96517
thorax -9.06254 0.954212 -1.01612
lowerneck -4.2982 0.0595686 0.995167
upperneck -8.48216 0.0292785 -0.343116
head -1.91673 -0.0112053 -0.273219
rclavicle -3.58309e-014 -2.10712e-014
rhumerus -17.4183 20.4041 -80.638
rradius 116.314
rwrist -7.98588
rhand -39.9871 39.1045
rfingers 7.12502
rthumb -12.9554 9.52666
lclavicle -3.58309e-014 -2.10712e-014
lhumerus -56.4674 -12.6677 96.2451
lradius 108.329
lwrist 31.8579
lhand -34.819 12.1349
lfingers 7.12502
lthumb -7.97005 41.9646
rfemur 3.98242 7.21323 29.0349
rtibia 32.4638
rfoot -7.87015 -5.55631
rtoes -21.579
lfemur -41.4635 8.47898 -15.47
ltibia 104.927
lfoot 7.62357 -12.3896
ltoes -12.0699
18
root 0.114172 17.7116 -20.1347 5.03686 -5.55746 -5.37649
lowerback 17.5233 0.935091 5.11458
upperback 0.75715 2.41534 1.80628
thorax -8.89728 0.981325 -1.54324
lowerneck -4.64453 -0.113693 1.09871
upperneck -8.4314 -0.194776 -0.120432
head -1.84225 -0.129506 -0.219929
rclavicle -9.0447e-015 -1.47101e-014
rhumerus -17.3588 20.7879 -80.6848
rradius 116.955
rwrist -8.56563
rhand -40.0342 38.3949
rfingers 7.12502
rthumb -13.0008 8.82002
lclavicle -9.0447e-015 -1.47101e-014
lhumerus -57.2468 -12.159 95.9234
lradius 108.824
lwrist 31.4226
lhand -34.7117 12.1601
lfingers 7.12502
lthumb -7.86652 41.9937
rfemur 6.75257 6.95371 29.0932
rtibia 29.8571
rfoot -4.21587 -4.71153
rtoes -21.0452
lfemur -42.6749 6.97851 -15.6025
ltibia 101.669
lfoot 7.38274 -12.1356
ltoes -9.76053
19
root 0.12818 17.7911 -19.5893 5.04486 -4.89827 -5.18964
lowerback 16.9945 0.995382 5.28658
upperback 0.902709 2.4643 1.58
thorax -8.42133 1.00974 -1.87917
lowerneck -5.36634 -0.342546 1.41266
upperneck -8.49727 -0.522131 -0.148769
head -1.74443 -0.301795 -0.280954
rclavicle 3.77691e-015 2.5842e-014
rhumerus -17.2075 20.9284 -80.6248
rradius 117.437
rwrist -8.70475
rhand -38.6693 36.0722
rfingers 7.12502
rthumb -11.6848 6.41804
lclavicle 3.77691e-015 2.5842e-014
lhumerus -57.7575 -11.6764 95.4227
lradius 109.373
lwrist 31.1922
lhand -34.7642 12.1446
lfingers 7.12502
lthumb -7.91719 41.9763
rfemur 9.40944 6.80915 28.8701
rtibia 27.1002
rfoot 0.349321 -4.20342
rtoes -18.433
lfemur -43.6476 5.53232 -15.9256
ltibia 98.3001
lfoot 4.61934 -11.5061
ltoes -13.965
20
root 0.13915 17.886 -19.0198 5.15632 -4.33262 -4.91371
lowerback 17.105 1.03787 5.21686
upperback -1.21476 2.61664 1.46167
thorax -10.8183 0.98124 -2.03719
lowerneck 1.6732 -0.564531 1.15678
upperneck -9.89984 -0.688746 0.146184
head -3.48422 -0.39038 -0.12911
rclavicle -1.15047e-014 -1.2921e-014
rhumerus -22.7916 21.9629 -82.5116
rradius 118.409
rwrist -8.4524
rhand -37.7414 35.5324
rfingers 7.12502
rthumb -10.7899 5.82957
lclavicle -1.15047e-014 -1.2921e-014
lhumerus -63.0218 -10.4154 95.9597
lradius 110.225
lwrist 31.0948
lhand -34.6868 11.7791
lfingers 7.12502
lthumb -7.84249 41.6137
rfemur 11.9644 6.7296 28.5264
rtibia 24.3069
rfoot 5.30179 -4.14643
rtoes -16.2542
lfemur -44.3012 4.1983 -16.3119
ltibia 94.597
lfoot 4.35536 -10.9051
ltoes -10.787
21
root 0.148668 17.983 -18.4537 5.12874 -3.44435 -4.56092
lowerback 16.5378 0.973481 5.14181
upperback 0.339794 2.38107 1.2891
thorax -8.77997 0.952348 -2.08613
lowerneck -6.03536 -0.604679 1.01387
upperneck -7.47319 -0.842732 0.302964
head -1.30429 -0.450793 -0.0783059
rclavicle 2.92213e-014 6.36111e-015
rhumerus -19.3349 22.1828 -81.1881
rradius 118.403
rwrist -8.77231
rhand -38.4778 38.2523
rfingers 7.12502
rthumb -11.5001 8.58778
lclavicle 2.92213e-014 6.36111e-015
lhumerus -59.7443 -9.93928 94.9936
lradius 110.017
lwrist 31.2172
lhand -34.424 10.7706
lfingers 7.12502
lthumb -7.58886 40.6144
rfemur 14.6841 6.73921 28.3119
rtibia 21.4093
rfoot 10.2347 -5.29289
rtoes -14.3723
lfemur -44.827 2.67593 -16.7382
ltibia 90.6956
lfoot 4.23278 -10.0418
ltoes -16.0498
22
root 0.160892 18.0655 -17.8822 5.21455 -2.82347 -4.34666
lowerback 16.0627 0.96757 5.17618
upperback 0.0665071 2.34828 1.13722
thorax -8.80607 0.927793 -2.25122
lowerneck -5.70863 -0.720766 0.836806
upperneck -7.23932 -0.976315 0.515952
head -1.28289 -0.514125 0.0159279
rclavicle 2.85753e-015 -1.63003e-014
rhumerus -20.2283 23.0589 -81.4928
rradius 118.728
rwrist -8.89333
rhand -39.1285 41.1439
rfingers 7.12502
rthumb -12.1275 11.5154
lclavicle 2.85753e-015 -1.63003e-014
lhumerus -60.8578 -9.01307 94.7536
lradius 110.43
lwrist 30.9614
lhand -34.5077 10.4378
lfingers 7.12502
lthumb -7.66961 40.2788
rfemur 17.6523 6.96499 28.2809
rtibia 17.7996
rfoot 15.417 -6.91283
rtoes -5.82663
lfemur -45.3061 1.58481 -16.9113
ltibia 86.5628
lfoot 2.41797 -9.13757
ltoes -17.4147
23
root 0.167173 18.1416 -17.3037 5.11405 -2.42993 -4.32518
lowerback 15.4307 1.00892 5.34377
upperback 0.0911517 2.37738 0.987265
thorax -8.40697 0.944866 -2.49302
lowerneck -5.41154 -0.811055 0.844356
upperneck -7.30406 -1.08969 0.582455
head -1.35237 -0.572061 0.0360499
rclavicle 7.42958e-015 -1.88845e-015
rhumerus -20.9351 23.7202 -81.8659
rradius 118.935
rwrist -8.47578
rhand -39.1957 40.7175
rfingers 7.12502
rthumb -12.1923 11.0928
lclavicle 7.42958e-015 -1.88845e-015
lhumerus -61.65 -8.20356 94.3376
lradius 110.906
lwrist 30.7659
lhand -35.1668 10.9376
lfingers 7.12502
lthumb -8.30576 40.7544
rfemur 20.9347 7.36613 28.5792
rtibia 13.8352
rfoot 20.326 -8.51257
rtoes 1.779
lfemur -45.212 0.743901 -16.7572
ltibia 82.0248
lfoot 2.87155 -8.32672
ltoes -13.8936
24
root 0.195838 18.2474 -16.6396 4.7984 -3.90706 -4.40066
lowerback 14.2093 1.66743 5.47856
upperback 0.32757 3.16198 0.779827
thorax -7.38043 1.35383 -2.89842
lowerneck -4.89766 -0.895321 0.772987
upperneck -7.35614 -1.18576 0.733609
head -1.45333 -0.620924 0.0967246
rclavicle 1.91827e-014 -4.07509e-015
rhumerus -21.9742 24.319 -82.3313
rradius 119.062
rwrist -7.87035
rhand -38.9915 39.8706
rfingers 7.12502
rthumb -11.9955 10.2344
lclavicle 1.91827e-014 -4.07509e-015
lhumerus -62.4304 -7.42414 93.9361
lradius 111.361
lwrist 30.6203
lhand -35.0546 11.0744
lfingers 7.12502
lthumb -8.19749 40.8954
rfemur 24.363 9.62749 28.754
rtibia 10.4922
rfoot 25.4127 -9.16633
rtoes 6.43023
lfemur -43.8253 1.3572 -16.6612
ltibia 77.1544
lfoot 1.68602 -7.42823
ltoes -11.4556
25
root 0.194687 18.341 -16.0664 5.13646 -3.34515 -4.56969
lowerback 13.7204 1.63979 5.64676
upperback -0.172034 3.13902 0.721945
thorax -7.63476 1.31896 -3.0407
lowerneck -3.98273 -0.97696 0.722807
upperneck -7.32615 -1.27759 0.855018
head -1.59712 -0.668719 0.147537
rclavicle 1.58531e-014 -1.72446e-014
rhumerus -23.6131 25.0445 -83.0857
rradius 119.078
rwrist -7.29503
rhand -38.8337 40.3942
rfingers 7.12502
rthumb -11.8433 10.7491
lclavicle 1.58531e-014 -1.72446e-014
lhumerus -63.4355 -6.66591 93.4165
lradius 111.74
lwrist 30.7199
lhand -34.1775 10.2167
lfingers 7.12502
lthumb -7.3509 40.069
rfemur 26.5798 9.89501 29.3079
rtibia 7.7044
rfoot 31.2565 -9.34964
rtoes 10.8793
lfemur -43.8559 0.322815 -16.1644
ltibia 72.2986
lfoot 1.27917 -6.66504
ltoes -13.2389
26
root 0.16195 18.3932 -15.6083 5.68527 -0.479882 -4.44691
lowerback 12.4192 0.801928 5.97608
upperback 0.298123 1.94862 0.482678
thorax -6.48268 0.77444 -3.20598
lowerneck -4.17292 -1.0096 0.911918
upperneck -8.17533 -1.30869 1.04636
head -1.83756 -0.696627 0.17866
rclavicle 1.03741e-014 5.96354e-015
rhumerus -22.9791 25.3343 -83.2509
rradius 118.708
rwrist -6.71878
rhand -38.5678 40.4928
rfingers 7.12502
rthumb -11.5868 10.8332
lclavicle 1.03741e-014 5.96354e-015
lhumerus -62.13 -6.27245 92.2933
lradius 111.932
lwrist 30.7746
lhand -34.0012 9.68968
lfingers 7.12502
lthumb -7.18075 39.5478
rfemur 27.6033 7.8353 29.9015
rtibia 6.30462
rfoot 34.5638 -9.3205
rtoes 17.9754
lfemur -44.9004 -2.34404 -15.7103
ltibia 67.3485
lfoot 1.60704 -6.37606
ltoes -14.6818
27
root 0.166917 18.4512 -15.057 5.79461 0.0162507 -4.63719
lowerback 10.943 0.685281 6.47999
upperback 1.15587 1.70243 0.281715
thorax -4.74862 0.71738 -3.60677
lowerneck -4.92092 -0.987461 1.034
upperneck -9.01081 -1.27794 1.12188
head -1.98071 -0.689442 0.181537
rclavicle 6.23687e-015 4.96962e-015
rhumerus -22.2313 25.7309 -83.2875
rradius 118.161
rwrist -6.03696
rhand -38.4785 40.5156
rfingers 7.12502
rthumb -11.5007 10.8511
lclavicle 6.23687e-015 4.96962e-015
lhumerus -60.7053 -5.75319 91.3455
lradius 112.238
lwrist 30.622
lhand -34.6276 9.8911
lfingers 7.12502
lthumb -7.78531 39.7278
rfemur 27.7363 8.06275 30.7175
rtibia 8.30372
rfoot 35.4164 -8.18803
rtoes 18.1752
lfemur -44.4998 -2.95996 -15.2287
ltibia 62.1564
lfoot 1.37594 -6.13638
ltoes -16.2431
28
root 0.174984 18.4953 -14.5098 5.86033 0.325089 -4.94821
lowerback 12.5516 0.71993 6.34782
upperback 0.165389 1.91695 0.593019
thorax -6.69531 0.738882 -3.29876
lowerneck -5.33951 -1.10502 0.732259
upperneck -8.07682 -1.45059 0.92864
head -1.60698 -0.756385 0.163926
rclavicle 1.08586e-014 -3.27995e-015
rhumerus -24.6867 26.4133 -83.8936
rradius 117.82
rwrist -5.10739
rhand -38.6769 40.9586
rfingers 7.12502
rthumb -11.6921 11.3048
lclavicle 1.08586e-014 -3.27995e-015
lhumerus -61.8734 -5.10916 91.6428
lradius 112.653
lwrist 30.1414
lhand -35.1892 9.82414
lfingers 7.12502
lthumb -8.32737 39.64
rfemur 27.2691 8.46124 31.7162
rtibia 11.5469
rfoot 33.2974 -6.88943
rtoes 16.5281
lfemur -43.8982 -3.32808 -14.6547
ltibia 56.7358
lfoot 3.40428 -7.99693
ltoes -6.98875
29
root 0.178362 18.5205 -13.9703 5.79725 0.507715 -5.36945
lowerback 13.0258 0.7421 6.52713
upperback 0.0754036 2.02283 0.712624
thorax -7.04751 0.771613 -3.30682
lowerneck -6.12007 -1.10424 0.60574
upperneck -7.84945 -1.45072 0.9675
head -1.40311 -0.749955 0.190213
rclavicle 1.9717e-014 2.95692e-014
rhumerus -25.583 26.9288 -84.2526
rradius 117.4
rwrist -4.24688
rhand -38.7293 38.5297
rfingers 7.12502
rthumb -11.7426 8.87887
lclavicle 1.9717e-014 2.95692e-014
lhumerus -61.5287 -4.66043 91.3763
lradius 112.865
lwrist 29.572
lhand -35.3925 9.4215
lfingers 7.12502
lthumb -8.52361 39.2295
rfemur 26.9742 8.97349 32.8303
rtibia 14.7108
rfoot 31.1881 -5.73189
rtoes 22.0385
lfemur -42.8906 -3.56659 -13.9887
ltibia 51.2261
lfoot 2.3904 -5.51008
ltoes -18.7009
30
root 0.174598 18.5363 -13.4368 5.65317 0.618532 -5.8797
lowerback 13.1408 0.788027 6.75124
upperback 0.320595 2.12429 0.846895
thorax -6.83592 0.828665 -3.3078
lowerneck -6.80286 -1.02374 0.465948
upperneck -8.09588 -1.33009 1.12386
head -1.36675 -0.686314 0.258869
rclavicle -4.13596e-014 1.03865e-014
rhumerus -26.1395 27.1749 -84.4873
rradius 116.889
rwrist -3.64417
rhand -38.4089 37.2863
rfingers 7.12502
rthumb -11.4337 7.61804
lclavicle -4.13596e-014 1.03865e-014
lhumerus -60.6967 -4.29349 91.0766
lradius 113.135
lwrist 29.0663
lhand -34.7639 9.37665
lfingers 7.12502
lthumb -7.91686 39.2084
rfemur 26.5167 9.54928 34.0509
rtibia 18.3417
rfoot 29.4823 -4.80366
rtoes 16.0278
lfemur -41.559 -3.71116 -13.2612
ltibia 45.7359
lfoot 2.87064 -4.95786
ltoes -19.3157
31
root 0.174257 18.5376 -12.9031 5.57843 0.826538 -6.18649
lowerback 13.4261 0.802276 6.76725
upperback 0.406321 2.1729 0.956734
thorax -6.90297 0.85276 -3.21625
lowerneck -7.44943 -0.980655 0.298328
upperneck -8.26749 -1.25884 1.2278
head -1.3138 -0.645292 0.315798
rclavicle 2.91965e-015 -1.42131e-014
rhumerus -27.0316 27.2724 -84.7735
rradius 116.001
rwrist -3.03283
rhand -38.0638 39.8898
rfingers 7.12502
rthumb -11.1008 10.2034
lclavicle 2.91965e-015 -1.42131e-014
lhumerus -59.8989 -4.04298 90.9488
lradius 113.278
lwrist 28.5389
lhand -34.1583 9.27768
lfingers 7.12502
lthumb -7.3324 39.1306
rfemur 25.8669 10.0561 35.0004
rtibia 22.295
rfoot 28.1962 -4.522
rtoes 20.9694
lfemur -40.1772 -3.97838 -12.7982
ltibia 40.4182
lfoot 3.3806 -4.71547
ltoes -20.715
